<mxfile host="Electron" agent="Mozilla/5.0 (Windows NT 10.0; Win64; x64) AppleWebKit/537.36 (KHTML, like Gecko) draw.io/28.0.6 Chrome/138.0.7204.100 Electron/37.2.3 Safari/537.36" version="28.0.6">
  <diagram id="C5RBs43oDa-KdzZeNtuy" name="Page-1">
    <mxGraphModel dx="4030" dy="2734" grid="1" gridSize="10" guides="1" tooltips="1" connect="1" arrows="1" fold="1" page="1" pageScale="1" pageWidth="827" pageHeight="1169" math="0" shadow="0">
      <root>
        <mxCell id="WIyWlLk6GJQsqaUBKTNV-0" />
        <mxCell id="WIyWlLk6GJQsqaUBKTNV-1" parent="WIyWlLk6GJQsqaUBKTNV-0" />
        <mxCell id="01g6yl83dIuN6CPQ-QCA-45" style="edgeStyle=orthogonalEdgeStyle;rounded=0;orthogonalLoop=1;jettySize=auto;html=1;entryX=0.5;entryY=0;entryDx=0;entryDy=0;" edge="1" parent="WIyWlLk6GJQsqaUBKTNV-1" source="WIyWlLk6GJQsqaUBKTNV-3" target="01g6yl83dIuN6CPQ-QCA-5">
          <mxGeometry relative="1" as="geometry" />
        </mxCell>
        <mxCell id="01g6yl83dIuN6CPQ-QCA-46" style="edgeStyle=orthogonalEdgeStyle;rounded=0;orthogonalLoop=1;jettySize=auto;html=1;" edge="1" parent="WIyWlLk6GJQsqaUBKTNV-1" source="WIyWlLk6GJQsqaUBKTNV-3" target="01g6yl83dIuN6CPQ-QCA-4">
          <mxGeometry relative="1" as="geometry" />
        </mxCell>
        <mxCell id="01g6yl83dIuN6CPQ-QCA-47" style="edgeStyle=orthogonalEdgeStyle;rounded=0;orthogonalLoop=1;jettySize=auto;html=1;entryX=0.5;entryY=0;entryDx=0;entryDy=0;" edge="1" parent="WIyWlLk6GJQsqaUBKTNV-1" source="WIyWlLk6GJQsqaUBKTNV-3" target="01g6yl83dIuN6CPQ-QCA-3">
          <mxGeometry relative="1" as="geometry" />
        </mxCell>
        <mxCell id="01g6yl83dIuN6CPQ-QCA-48" style="edgeStyle=orthogonalEdgeStyle;rounded=0;orthogonalLoop=1;jettySize=auto;html=1;entryX=0.5;entryY=0;entryDx=0;entryDy=0;" edge="1" parent="WIyWlLk6GJQsqaUBKTNV-1" source="WIyWlLk6GJQsqaUBKTNV-3" target="01g6yl83dIuN6CPQ-QCA-2">
          <mxGeometry relative="1" as="geometry" />
        </mxCell>
        <mxCell id="WIyWlLk6GJQsqaUBKTNV-3" value="&lt;font style=&quot;font-size: 18px;&quot;&gt;JOGO DE ALFABETIZAÇÃO INFANTIL&lt;/font&gt;" style="rounded=1;whiteSpace=wrap;html=1;fontSize=12;glass=0;strokeWidth=1;shadow=0;fillColor=#66FFFF;" parent="WIyWlLk6GJQsqaUBKTNV-1" vertex="1">
          <mxGeometry x="100" y="-260" width="390" height="120" as="geometry" />
        </mxCell>
        <mxCell id="01g6yl83dIuN6CPQ-QCA-1" value="&amp;nbsp;OBJETIVOS&amp;nbsp;&lt;div&gt;DO JOGO&lt;/div&gt;" style="rounded=1;whiteSpace=wrap;html=1;fontSize=12;glass=0;strokeWidth=1;shadow=0;fillColor=#E6FFCC;" vertex="1" parent="WIyWlLk6GJQsqaUBKTNV-1">
          <mxGeometry x="-790" y="110" width="120" height="60" as="geometry" />
        </mxCell>
        <mxCell id="01g6yl83dIuN6CPQ-QCA-41" style="edgeStyle=orthogonalEdgeStyle;rounded=0;orthogonalLoop=1;jettySize=auto;html=1;entryX=0.5;entryY=0;entryDx=0;entryDy=0;fillColor=#E5CCFF;" edge="1" parent="WIyWlLk6GJQsqaUBKTNV-1" source="01g6yl83dIuN6CPQ-QCA-2" target="01g6yl83dIuN6CPQ-QCA-20">
          <mxGeometry relative="1" as="geometry" />
        </mxCell>
        <mxCell id="01g6yl83dIuN6CPQ-QCA-42" style="edgeStyle=orthogonalEdgeStyle;rounded=0;orthogonalLoop=1;jettySize=auto;html=1;entryX=0.5;entryY=0;entryDx=0;entryDy=0;fillColor=#E5CCFF;" edge="1" parent="WIyWlLk6GJQsqaUBKTNV-1" source="01g6yl83dIuN6CPQ-QCA-2" target="01g6yl83dIuN6CPQ-QCA-40">
          <mxGeometry relative="1" as="geometry" />
        </mxCell>
        <mxCell id="01g6yl83dIuN6CPQ-QCA-43" style="edgeStyle=orthogonalEdgeStyle;rounded=0;orthogonalLoop=1;jettySize=auto;html=1;fillColor=#E5CCFF;" edge="1" parent="WIyWlLk6GJQsqaUBKTNV-1" source="01g6yl83dIuN6CPQ-QCA-2" target="01g6yl83dIuN6CPQ-QCA-39">
          <mxGeometry relative="1" as="geometry" />
        </mxCell>
        <mxCell id="01g6yl83dIuN6CPQ-QCA-44" style="edgeStyle=orthogonalEdgeStyle;rounded=0;orthogonalLoop=1;jettySize=auto;html=1;fillColor=#E5CCFF;" edge="1" parent="WIyWlLk6GJQsqaUBKTNV-1" source="01g6yl83dIuN6CPQ-QCA-2" target="01g6yl83dIuN6CPQ-QCA-38">
          <mxGeometry relative="1" as="geometry" />
        </mxCell>
        <mxCell id="01g6yl83dIuN6CPQ-QCA-2" value="CONCLUSÃO" style="rounded=1;whiteSpace=wrap;html=1;fontSize=12;glass=0;strokeWidth=1;shadow=0;fillColor=#E5CCFF;" vertex="1" parent="WIyWlLk6GJQsqaUBKTNV-1">
          <mxGeometry x="990" y="-40" width="120" height="60" as="geometry" />
        </mxCell>
        <mxCell id="01g6yl83dIuN6CPQ-QCA-33" style="edgeStyle=orthogonalEdgeStyle;rounded=0;orthogonalLoop=1;jettySize=auto;html=1;entryX=0.5;entryY=0;entryDx=0;entryDy=0;fillColor=#FFE6CC;" edge="1" parent="WIyWlLk6GJQsqaUBKTNV-1" source="01g6yl83dIuN6CPQ-QCA-3" target="01g6yl83dIuN6CPQ-QCA-23">
          <mxGeometry relative="1" as="geometry" />
        </mxCell>
        <mxCell id="01g6yl83dIuN6CPQ-QCA-34" style="edgeStyle=orthogonalEdgeStyle;rounded=0;orthogonalLoop=1;jettySize=auto;html=1;entryX=0.5;entryY=0;entryDx=0;entryDy=0;fillColor=#FFE6CC;" edge="1" parent="WIyWlLk6GJQsqaUBKTNV-1" source="01g6yl83dIuN6CPQ-QCA-3" target="01g6yl83dIuN6CPQ-QCA-22">
          <mxGeometry relative="1" as="geometry" />
        </mxCell>
        <mxCell id="01g6yl83dIuN6CPQ-QCA-3" value="TESTES" style="rounded=1;whiteSpace=wrap;html=1;fontSize=12;glass=0;strokeWidth=1;shadow=0;fillColor=#FFE6CC;" vertex="1" parent="WIyWlLk6GJQsqaUBKTNV-1">
          <mxGeometry x="470" y="-40" width="120" height="60" as="geometry" />
        </mxCell>
        <mxCell id="01g6yl83dIuN6CPQ-QCA-28" style="edgeStyle=orthogonalEdgeStyle;rounded=0;orthogonalLoop=1;jettySize=auto;html=1;entryX=0.5;entryY=0;entryDx=0;entryDy=0;fillColor=#CCFFFF;" edge="1" parent="WIyWlLk6GJQsqaUBKTNV-1" source="01g6yl83dIuN6CPQ-QCA-4" target="01g6yl83dIuN6CPQ-QCA-24">
          <mxGeometry relative="1" as="geometry" />
        </mxCell>
        <mxCell id="01g6yl83dIuN6CPQ-QCA-29" style="edgeStyle=orthogonalEdgeStyle;rounded=0;orthogonalLoop=1;jettySize=auto;html=1;fillColor=#CCFFFF;" edge="1" parent="WIyWlLk6GJQsqaUBKTNV-1" source="01g6yl83dIuN6CPQ-QCA-4" target="01g6yl83dIuN6CPQ-QCA-10">
          <mxGeometry relative="1" as="geometry" />
        </mxCell>
        <mxCell id="01g6yl83dIuN6CPQ-QCA-30" style="edgeStyle=orthogonalEdgeStyle;rounded=0;orthogonalLoop=1;jettySize=auto;html=1;entryX=0.5;entryY=0;entryDx=0;entryDy=0;fillColor=#CCFFFF;" edge="1" parent="WIyWlLk6GJQsqaUBKTNV-1" source="01g6yl83dIuN6CPQ-QCA-4" target="01g6yl83dIuN6CPQ-QCA-9">
          <mxGeometry relative="1" as="geometry" />
        </mxCell>
        <mxCell id="01g6yl83dIuN6CPQ-QCA-4" value="EXECUÇÃO" style="rounded=1;whiteSpace=wrap;html=1;fontSize=12;glass=0;strokeWidth=1;shadow=0;fillColor=#CCFFFF;" vertex="1" parent="WIyWlLk6GJQsqaUBKTNV-1">
          <mxGeometry x="-20" y="-40" width="120" height="60" as="geometry" />
        </mxCell>
        <mxCell id="01g6yl83dIuN6CPQ-QCA-14" style="edgeStyle=orthogonalEdgeStyle;rounded=0;orthogonalLoop=1;jettySize=auto;html=1;entryX=0.5;entryY=0;entryDx=0;entryDy=0;fillColor=#E6FFCC;" edge="1" parent="WIyWlLk6GJQsqaUBKTNV-1" source="01g6yl83dIuN6CPQ-QCA-5" target="01g6yl83dIuN6CPQ-QCA-13">
          <mxGeometry relative="1" as="geometry" />
        </mxCell>
        <mxCell id="01g6yl83dIuN6CPQ-QCA-15" style="edgeStyle=orthogonalEdgeStyle;rounded=0;orthogonalLoop=1;jettySize=auto;html=1;entryX=0.5;entryY=0;entryDx=0;entryDy=0;fillColor=#E6FFCC;" edge="1" parent="WIyWlLk6GJQsqaUBKTNV-1" source="01g6yl83dIuN6CPQ-QCA-5" target="01g6yl83dIuN6CPQ-QCA-1">
          <mxGeometry relative="1" as="geometry" />
        </mxCell>
        <mxCell id="01g6yl83dIuN6CPQ-QCA-16" style="edgeStyle=orthogonalEdgeStyle;rounded=0;orthogonalLoop=1;jettySize=auto;html=1;entryX=0.5;entryY=0;entryDx=0;entryDy=0;fillColor=#E6FFCC;" edge="1" parent="WIyWlLk6GJQsqaUBKTNV-1" source="01g6yl83dIuN6CPQ-QCA-5" target="01g6yl83dIuN6CPQ-QCA-12">
          <mxGeometry relative="1" as="geometry" />
        </mxCell>
        <mxCell id="01g6yl83dIuN6CPQ-QCA-27" style="edgeStyle=orthogonalEdgeStyle;rounded=0;orthogonalLoop=1;jettySize=auto;html=1;entryX=0.5;entryY=0;entryDx=0;entryDy=0;fillColor=#E6FFCC;" edge="1" parent="WIyWlLk6GJQsqaUBKTNV-1" source="01g6yl83dIuN6CPQ-QCA-5" target="01g6yl83dIuN6CPQ-QCA-6">
          <mxGeometry relative="1" as="geometry" />
        </mxCell>
        <mxCell id="01g6yl83dIuN6CPQ-QCA-5" value="PLANEJAMENTO" style="rounded=1;whiteSpace=wrap;html=1;fontSize=12;glass=0;strokeWidth=1;shadow=0;fillColor=#E6FFCC;" vertex="1" parent="WIyWlLk6GJQsqaUBKTNV-1">
          <mxGeometry x="-570" y="-40" width="120" height="60" as="geometry" />
        </mxCell>
        <mxCell id="01g6yl83dIuN6CPQ-QCA-26" style="edgeStyle=orthogonalEdgeStyle;rounded=0;orthogonalLoop=1;jettySize=auto;html=1;entryX=0.5;entryY=0;entryDx=0;entryDy=0;fillColor=#E6FFCC;" edge="1" parent="WIyWlLk6GJQsqaUBKTNV-1" source="01g6yl83dIuN6CPQ-QCA-6" target="01g6yl83dIuN6CPQ-QCA-25">
          <mxGeometry relative="1" as="geometry" />
        </mxCell>
        <mxCell id="01g6yl83dIuN6CPQ-QCA-6" value="POSSÍVEIS RISCOS&amp;nbsp;" style="rounded=1;whiteSpace=wrap;html=1;fontSize=12;glass=0;strokeWidth=1;shadow=0;fillColor=#E6FFCC;" vertex="1" parent="WIyWlLk6GJQsqaUBKTNV-1">
          <mxGeometry x="-343" y="110" width="120" height="60" as="geometry" />
        </mxCell>
        <mxCell id="01g6yl83dIuN6CPQ-QCA-7" value="FRONT-END" style="rounded=1;whiteSpace=wrap;html=1;fontSize=12;glass=0;strokeWidth=1;shadow=0;fillColor=#CCFFFF;" vertex="1" parent="WIyWlLk6GJQsqaUBKTNV-1">
          <mxGeometry x="240" y="180" width="120" height="60" as="geometry" />
        </mxCell>
        <mxCell id="01g6yl83dIuN6CPQ-QCA-8" value="BACK-END" style="rounded=1;whiteSpace=wrap;html=1;fontSize=12;glass=0;strokeWidth=1;shadow=0;fillColor=#CCFFFF;" vertex="1" parent="WIyWlLk6GJQsqaUBKTNV-1">
          <mxGeometry x="80" y="180" width="120" height="60" as="geometry" />
        </mxCell>
        <mxCell id="01g6yl83dIuN6CPQ-QCA-31" style="edgeStyle=orthogonalEdgeStyle;rounded=0;orthogonalLoop=1;jettySize=auto;html=1;entryX=0.5;entryY=0;entryDx=0;entryDy=0;fillColor=#CCFFFF;" edge="1" parent="WIyWlLk6GJQsqaUBKTNV-1" source="01g6yl83dIuN6CPQ-QCA-9" target="01g6yl83dIuN6CPQ-QCA-8">
          <mxGeometry relative="1" as="geometry" />
        </mxCell>
        <mxCell id="01g6yl83dIuN6CPQ-QCA-32" style="edgeStyle=orthogonalEdgeStyle;rounded=0;orthogonalLoop=1;jettySize=auto;html=1;entryX=0.5;entryY=0;entryDx=0;entryDy=0;fillColor=#CCFFFF;" edge="1" parent="WIyWlLk6GJQsqaUBKTNV-1" source="01g6yl83dIuN6CPQ-QCA-9" target="01g6yl83dIuN6CPQ-QCA-7">
          <mxGeometry relative="1" as="geometry" />
        </mxCell>
        <mxCell id="01g6yl83dIuN6CPQ-QCA-9" value="PLANEJAMENTO&lt;div&gt;DA PROGRMAÇÃO&lt;/div&gt;" style="rounded=1;whiteSpace=wrap;html=1;fontSize=12;glass=0;strokeWidth=1;shadow=0;fillColor=#CCFFFF;" vertex="1" parent="WIyWlLk6GJQsqaUBKTNV-1">
          <mxGeometry x="160" y="70" width="120" height="60" as="geometry" />
        </mxCell>
        <mxCell id="01g6yl83dIuN6CPQ-QCA-10" value="DEFINIÇÃO DO&lt;br&gt;DESIGN DO JOGO" style="rounded=1;whiteSpace=wrap;html=1;fontSize=12;glass=0;strokeWidth=1;shadow=0;fillColor=#CCFFFF;" vertex="1" parent="WIyWlLk6GJQsqaUBKTNV-1">
          <mxGeometry x="-20" y="70" width="120" height="60" as="geometry" />
        </mxCell>
        <mxCell id="01g6yl83dIuN6CPQ-QCA-11" value="METODOLOGIA/ESTRUTURA PEDAGOGICA" style="rounded=1;whiteSpace=wrap;html=1;fontSize=12;glass=0;strokeWidth=1;shadow=0;fillColor=#E6FFCC;" vertex="1" parent="WIyWlLk6GJQsqaUBKTNV-1">
          <mxGeometry x="-690" y="220" width="200" height="60" as="geometry" />
        </mxCell>
        <mxCell id="01g6yl83dIuN6CPQ-QCA-12" value="DEFINIÇÃO DE RECURSOS" style="rounded=1;whiteSpace=wrap;html=1;fontSize=12;glass=0;strokeWidth=1;shadow=0;fillColor=#E6FFCC;" vertex="1" parent="WIyWlLk6GJQsqaUBKTNV-1">
          <mxGeometry x="-490" y="110" width="120" height="60" as="geometry" />
        </mxCell>
        <mxCell id="01g6yl83dIuN6CPQ-QCA-19" style="edgeStyle=orthogonalEdgeStyle;rounded=0;orthogonalLoop=1;jettySize=auto;html=1;entryX=0.5;entryY=0;entryDx=0;entryDy=0;fillColor=#E6FFCC;" edge="1" parent="WIyWlLk6GJQsqaUBKTNV-1" source="01g6yl83dIuN6CPQ-QCA-13" target="01g6yl83dIuN6CPQ-QCA-11">
          <mxGeometry relative="1" as="geometry" />
        </mxCell>
        <mxCell id="01g6yl83dIuN6CPQ-QCA-13" value="LEVANTAMENTO DE REQUISITOS" style="rounded=1;whiteSpace=wrap;html=1;fontSize=12;glass=0;strokeWidth=1;shadow=0;fillColor=#E6FFCC;" vertex="1" parent="WIyWlLk6GJQsqaUBKTNV-1">
          <mxGeometry x="-650" y="110" width="120" height="60" as="geometry" />
        </mxCell>
        <mxCell id="01g6yl83dIuN6CPQ-QCA-20" value="DOCUMENTAÇÃO DO PROJETO" style="rounded=1;whiteSpace=wrap;html=1;fontSize=12;glass=0;strokeWidth=1;shadow=0;fillColor=#E5CCFF;" vertex="1" parent="WIyWlLk6GJQsqaUBKTNV-1">
          <mxGeometry x="760" y="70" width="120" height="60" as="geometry" />
        </mxCell>
        <mxCell id="01g6yl83dIuN6CPQ-QCA-21" value="AJUSTES DE USABILIDADE E ACESSIBILIDADE" style="rounded=1;whiteSpace=wrap;html=1;fontSize=12;glass=0;strokeWidth=1;shadow=0;fillColor=#FFE6CC;" vertex="1" parent="WIyWlLk6GJQsqaUBKTNV-1">
          <mxGeometry x="610" y="70" width="120" height="60" as="geometry" />
        </mxCell>
        <mxCell id="01g6yl83dIuN6CPQ-QCA-22" value="TESTES COM CRIANÇAS E PROFESSORES" style="rounded=1;whiteSpace=wrap;html=1;fontSize=12;glass=0;strokeWidth=1;shadow=0;fillColor=#FFE6CC;" vertex="1" parent="WIyWlLk6GJQsqaUBKTNV-1">
          <mxGeometry x="470" y="70" width="120" height="60" as="geometry" />
        </mxCell>
        <mxCell id="01g6yl83dIuN6CPQ-QCA-23" value="TESTES INTERNOS" style="rounded=1;whiteSpace=wrap;html=1;fontSize=12;glass=0;strokeWidth=1;shadow=0;fillColor=#FFE6CC;" vertex="1" parent="WIyWlLk6GJQsqaUBKTNV-1">
          <mxGeometry x="340" y="70" width="120" height="60" as="geometry" />
        </mxCell>
        <mxCell id="01g6yl83dIuN6CPQ-QCA-24" value="DEFINIÇÃO DA JORNADA DO USUÁRIO" style="rounded=1;whiteSpace=wrap;html=1;fontSize=12;glass=0;strokeWidth=1;shadow=0;fillColor=#CCFFFF;" vertex="1" parent="WIyWlLk6GJQsqaUBKTNV-1">
          <mxGeometry x="-180" y="70" width="120" height="60" as="geometry" />
        </mxCell>
        <mxCell id="01g6yl83dIuN6CPQ-QCA-25" value="PLANOS DE MITIGAÇÃO" style="rounded=1;whiteSpace=wrap;html=1;fontSize=12;glass=0;strokeWidth=1;shadow=0;fillColor=#E6FFCC;" vertex="1" parent="WIyWlLk6GJQsqaUBKTNV-1">
          <mxGeometry x="-343" y="220" width="120" height="60" as="geometry" />
        </mxCell>
        <mxCell id="01g6yl83dIuN6CPQ-QCA-35" style="edgeStyle=orthogonalEdgeStyle;rounded=0;orthogonalLoop=1;jettySize=auto;html=1;entryX=0.558;entryY=0.08;entryDx=0;entryDy=0;entryPerimeter=0;fillColor=#FFE6CC;" edge="1" parent="WIyWlLk6GJQsqaUBKTNV-1" source="01g6yl83dIuN6CPQ-QCA-3" target="01g6yl83dIuN6CPQ-QCA-21">
          <mxGeometry relative="1" as="geometry" />
        </mxCell>
        <mxCell id="01g6yl83dIuN6CPQ-QCA-38" value="PLANO DE MANUTENÇAÕ E ATUALIZAÇÕES" style="rounded=1;whiteSpace=wrap;html=1;fontSize=12;glass=0;strokeWidth=1;shadow=0;fillColor=#E5CCFF;" vertex="1" parent="WIyWlLk6GJQsqaUBKTNV-1">
          <mxGeometry x="1220" y="70" width="120" height="60" as="geometry" />
        </mxCell>
        <mxCell id="01g6yl83dIuN6CPQ-QCA-39" value="DIVULGAÇÃO" style="rounded=1;whiteSpace=wrap;html=1;fontSize=12;glass=0;strokeWidth=1;shadow=0;fillColor=#E5CCFF;" vertex="1" parent="WIyWlLk6GJQsqaUBKTNV-1">
          <mxGeometry x="1060" y="70" width="120" height="60" as="geometry" />
        </mxCell>
        <mxCell id="01g6yl83dIuN6CPQ-QCA-40" value="PUBLICAÇÃO EM PLATAFORMAS" style="rounded=1;whiteSpace=wrap;html=1;fontSize=12;glass=0;strokeWidth=1;shadow=0;fillColor=#E5CCFF;" vertex="1" parent="WIyWlLk6GJQsqaUBKTNV-1">
          <mxGeometry x="910" y="70" width="120" height="60" as="geometry" />
        </mxCell>
      </root>
    </mxGraphModel>
  </diagram>
</mxfile>
